<mxfile host="app.diagrams.net" modified="2024-05-14T13:02:01.901Z" agent="Mozilla/5.0 (Windows NT 10.0; Win64; x64) AppleWebKit/537.36 (KHTML, like Gecko) Chrome/124.0.0.0 Safari/537.36" etag="KIJP-KMtGmGWUYe6qXgF" version="24.4.0" type="device">
  <diagram name="Page-1" id="8pM2gXrqCeZqMILkK5z5">
    <mxGraphModel dx="2607" dy="1356" grid="1" gridSize="10" guides="1" tooltips="1" connect="1" arrows="1" fold="1" page="1" pageScale="1" pageWidth="1654" pageHeight="1169" math="0" shadow="0">
      <root>
        <mxCell id="0" />
        <mxCell id="1" parent="0" />
        <mxCell id="nNgazk7PQz3e_FqCZn8d-1" value="&lt;font style=&quot;font-size: 25px;&quot;&gt;Différentiel&lt;/font&gt;" style="rounded=0;whiteSpace=wrap;html=1;fillColor=#ffe6cc;strokeColor=#d79b00;" vertex="1" parent="1">
          <mxGeometry x="686" y="467" width="223" height="115" as="geometry" />
        </mxCell>
        <mxCell id="nNgazk7PQz3e_FqCZn8d-5" value="&lt;font style=&quot;font-size: 18px;&quot;&gt;Conception&lt;/font&gt;" style="ellipse;whiteSpace=wrap;html=1;" vertex="1" parent="1">
          <mxGeometry x="380" y="240" width="130" height="110" as="geometry" />
        </mxCell>
        <mxCell id="nNgazk7PQz3e_FqCZn8d-6" value="&lt;font style=&quot;font-size: 18px;&quot;&gt;Utilisation&lt;/font&gt;" style="ellipse;whiteSpace=wrap;html=1;" vertex="1" parent="1">
          <mxGeometry x="732.5" y="810" width="130" height="110" as="geometry" />
        </mxCell>
        <mxCell id="nNgazk7PQz3e_FqCZn8d-7" value="&lt;font style=&quot;font-size: 18px;&quot;&gt;Montage/&lt;/font&gt;&lt;div&gt;&lt;font style=&quot;font-size: 18px;&quot;&gt;Etalonnage&lt;/font&gt;&lt;/div&gt;" style="ellipse;whiteSpace=wrap;html=1;" vertex="1" parent="1">
          <mxGeometry x="1080" y="700" width="130" height="110" as="geometry" />
        </mxCell>
        <mxCell id="nNgazk7PQz3e_FqCZn8d-8" value="&lt;font style=&quot;font-size: 18px;&quot;&gt;Tests&lt;/font&gt;" style="ellipse;whiteSpace=wrap;html=1;" vertex="1" parent="1">
          <mxGeometry x="1080" y="240" width="130" height="110" as="geometry" />
        </mxCell>
        <mxCell id="nNgazk7PQz3e_FqCZn8d-9" value="&lt;font style=&quot;font-size: 18px;&quot;&gt;Fabrication&lt;/font&gt;" style="ellipse;whiteSpace=wrap;html=1;" vertex="1" parent="1">
          <mxGeometry x="732.5" y="130" width="130" height="110" as="geometry" />
        </mxCell>
        <mxCell id="nNgazk7PQz3e_FqCZn8d-10" value="&lt;font style=&quot;font-size: 18px;&quot;&gt;Maintenance&lt;/font&gt;" style="ellipse;whiteSpace=wrap;html=1;" vertex="1" parent="1">
          <mxGeometry x="380" y="710" width="130" height="110" as="geometry" />
        </mxCell>
        <mxCell id="nNgazk7PQz3e_FqCZn8d-11" value="" style="endArrow=none;html=1;rounded=0;exitX=1;exitY=0;exitDx=0;exitDy=0;" edge="1" parent="1" source="nNgazk7PQz3e_FqCZn8d-1" target="nNgazk7PQz3e_FqCZn8d-8">
          <mxGeometry width="50" height="50" relative="1" as="geometry">
            <mxPoint x="880" y="440" as="sourcePoint" />
            <mxPoint x="930" y="390" as="targetPoint" />
          </mxGeometry>
        </mxCell>
        <mxCell id="nNgazk7PQz3e_FqCZn8d-12" value="" style="endArrow=none;html=1;rounded=0;exitX=1;exitY=1;exitDx=0;exitDy=0;entryX=0;entryY=0;entryDx=0;entryDy=0;" edge="1" parent="1" source="nNgazk7PQz3e_FqCZn8d-1" target="nNgazk7PQz3e_FqCZn8d-7">
          <mxGeometry width="50" height="50" relative="1" as="geometry">
            <mxPoint x="919" y="477" as="sourcePoint" />
            <mxPoint x="1144" y="404" as="targetPoint" />
          </mxGeometry>
        </mxCell>
        <mxCell id="nNgazk7PQz3e_FqCZn8d-13" value="" style="endArrow=none;html=1;rounded=0;exitX=0.5;exitY=1;exitDx=0;exitDy=0;entryX=0.5;entryY=0;entryDx=0;entryDy=0;" edge="1" parent="1" source="nNgazk7PQz3e_FqCZn8d-1" target="nNgazk7PQz3e_FqCZn8d-6">
          <mxGeometry width="50" height="50" relative="1" as="geometry">
            <mxPoint x="929" y="487" as="sourcePoint" />
            <mxPoint x="1154" y="414" as="targetPoint" />
          </mxGeometry>
        </mxCell>
        <mxCell id="nNgazk7PQz3e_FqCZn8d-14" value="" style="endArrow=none;html=1;rounded=0;exitX=0.5;exitY=0;exitDx=0;exitDy=0;entryX=0.5;entryY=1;entryDx=0;entryDy=0;" edge="1" parent="1" source="nNgazk7PQz3e_FqCZn8d-1" target="nNgazk7PQz3e_FqCZn8d-9">
          <mxGeometry width="50" height="50" relative="1" as="geometry">
            <mxPoint x="939" y="497" as="sourcePoint" />
            <mxPoint x="1164" y="424" as="targetPoint" />
          </mxGeometry>
        </mxCell>
        <mxCell id="nNgazk7PQz3e_FqCZn8d-15" value="" style="endArrow=none;html=1;rounded=0;exitX=1;exitY=1;exitDx=0;exitDy=0;entryX=0;entryY=0;entryDx=0;entryDy=0;" edge="1" parent="1" source="nNgazk7PQz3e_FqCZn8d-5" target="nNgazk7PQz3e_FqCZn8d-1">
          <mxGeometry width="50" height="50" relative="1" as="geometry">
            <mxPoint x="919" y="592" as="sourcePoint" />
            <mxPoint x="680" y="390" as="targetPoint" />
          </mxGeometry>
        </mxCell>
        <mxCell id="nNgazk7PQz3e_FqCZn8d-16" value="" style="endArrow=none;html=1;rounded=0;exitX=0;exitY=1;exitDx=0;exitDy=0;entryX=1;entryY=0;entryDx=0;entryDy=0;" edge="1" parent="1" source="nNgazk7PQz3e_FqCZn8d-1" target="nNgazk7PQz3e_FqCZn8d-10">
          <mxGeometry width="50" height="50" relative="1" as="geometry">
            <mxPoint x="929" y="602" as="sourcePoint" />
            <mxPoint x="1148" y="688" as="targetPoint" />
          </mxGeometry>
        </mxCell>
        <mxCell id="nNgazk7PQz3e_FqCZn8d-17" value="Etre rule-compliant (surcourants, capteurs, ...)" style="whiteSpace=wrap;html=1;aspect=fixed;dashed=1;dashPattern=8 8;strokeColor=#ff0000;" vertex="1" parent="1">
          <mxGeometry x="390" y="50" width="80" height="80" as="geometry" />
        </mxCell>
        <mxCell id="nNgazk7PQz3e_FqCZn8d-18" value="Pouvoir rentrer spatialement dans la voiture" style="whiteSpace=wrap;html=1;aspect=fixed;dashed=1;dashPattern=8 8;strokeColor=#ff0000;" vertex="1" parent="1">
          <mxGeometry x="240" y="100" width="80" height="80" as="geometry" />
        </mxCell>
        <mxCell id="nNgazk7PQz3e_FqCZn8d-19" value="Etre suffisamment explicite pour être repris" style="whiteSpace=wrap;html=1;aspect=fixed;dashed=1;dashPattern=8 8;strokeColor=#FF0303;" vertex="1" parent="1">
          <mxGeometry x="565" y="120" width="80" height="80" as="geometry" />
        </mxCell>
        <mxCell id="nNgazk7PQz3e_FqCZn8d-20" value="Etre suffisamment explicite pour être repris" style="whiteSpace=wrap;html=1;aspect=fixed;dashed=1;dashPattern=8 8;strokeColor=#ff0000;" vertex="1" parent="1">
          <mxGeometry x="757.5" y="10" width="80" height="80" as="geometry" />
        </mxCell>
        <mxCell id="nNgazk7PQz3e_FqCZn8d-21" value="Etre suffisamment explicite pour être repris" style="whiteSpace=wrap;html=1;aspect=fixed;dashed=1;dashPattern=8 8;strokeColor=#ff0000;" vertex="1" parent="1">
          <mxGeometry x="230" y="620" width="80" height="80" as="geometry" />
        </mxCell>
        <mxCell id="nNgazk7PQz3e_FqCZn8d-22" value="Etre adapté à un nombre donné de moteurs" style="whiteSpace=wrap;html=1;aspect=fixed;dashed=1;dashPattern=8 8;" vertex="1" parent="1">
          <mxGeometry x="170" y="270" width="80" height="80" as="geometry" />
        </mxCell>
        <mxCell id="nNgazk7PQz3e_FqCZn8d-23" value="Pouvoir communiquer avec les autres éléments du véhicule nécessaires au fonctionnement" style="whiteSpace=wrap;html=1;aspect=fixed;dashed=1;dashPattern=8 8;" vertex="1" parent="1">
          <mxGeometry x="330" y="420" width="100" height="100" as="geometry" />
        </mxCell>
        <mxCell id="nNgazk7PQz3e_FqCZn8d-24" value="Etre adaptable à des changements de paramètres de la voiture" style="whiteSpace=wrap;html=1;aspect=fixed;dashed=1;dashPattern=8 8;" vertex="1" parent="1">
          <mxGeometry x="240" y="820" width="90" height="90" as="geometry" />
        </mxCell>
        <mxCell id="nNgazk7PQz3e_FqCZn8d-25" value="Eviter le glissement du véhicule en adaptant la commande des moteurs en fonction de la situation en temps réel" style="whiteSpace=wrap;html=1;aspect=fixed;dashed=1;dashPattern=8 8;" vertex="1" parent="1">
          <mxGeometry x="520" y="840" width="110" height="110" as="geometry" />
        </mxCell>
        <mxCell id="nNgazk7PQz3e_FqCZn8d-26" value="Survivre aux conditions d&#39;utilisation de la voiture" style="whiteSpace=wrap;html=1;aspect=fixed;dashed=1;dashPattern=8 8;strokeColor=#ff0000;" vertex="1" parent="1">
          <mxGeometry x="757.5" y="990" width="80" height="80" as="geometry" />
        </mxCell>
        <mxCell id="nNgazk7PQz3e_FqCZn8d-27" value="Transmettre et adapter les ordres du pilote en commandant les onduleurs" style="whiteSpace=wrap;html=1;aspect=fixed;dashed=1;dashPattern=8 8;" vertex="1" parent="1">
          <mxGeometry x="940" y="840" width="90" height="90" as="geometry" />
        </mxCell>
        <mxCell id="nNgazk7PQz3e_FqCZn8d-28" value="Etre implémentable dans le véhicule en convenant à ses paramètres" style="whiteSpace=wrap;html=1;aspect=fixed;dashed=1;dashPattern=8 8;strokeColor=#ff0000;" vertex="1" parent="1">
          <mxGeometry x="1300" y="770" width="90" height="90" as="geometry" />
        </mxCell>
        <mxCell id="nNgazk7PQz3e_FqCZn8d-29" value="Accepter des ordres &quot;fictifs&quot; non générés par des capteurs internes au véhicule" style="whiteSpace=wrap;html=1;aspect=fixed;dashed=1;dashPattern=8 8;strokeColor=#ff0000;" vertex="1" parent="1">
          <mxGeometry x="1170" y="70" width="90" height="90" as="geometry" />
        </mxCell>
        <mxCell id="nNgazk7PQz3e_FqCZn8d-30" value="Fonctionner sur un modèle réduit (maquette)" style="whiteSpace=wrap;html=1;aspect=fixed;dashed=1;dashPattern=8 8;" vertex="1" parent="1">
          <mxGeometry x="1320" y="320" width="90" height="90" as="geometry" />
        </mxCell>
        <mxCell id="nNgazk7PQz3e_FqCZn8d-32" value="" style="endArrow=classic;html=1;rounded=0;entryX=0.5;entryY=1;entryDx=0;entryDy=0;exitX=1;exitY=0;exitDx=0;exitDy=0;" edge="1" parent="1" source="nNgazk7PQz3e_FqCZn8d-8" target="nNgazk7PQz3e_FqCZn8d-29">
          <mxGeometry width="50" height="50" relative="1" as="geometry">
            <mxPoint x="1100" y="460" as="sourcePoint" />
            <mxPoint x="1150" y="410" as="targetPoint" />
          </mxGeometry>
        </mxCell>
        <mxCell id="nNgazk7PQz3e_FqCZn8d-34" value="" style="endArrow=classic;html=1;rounded=0;entryX=0;entryY=0.5;entryDx=0;entryDy=0;" edge="1" parent="1" source="nNgazk7PQz3e_FqCZn8d-8" target="nNgazk7PQz3e_FqCZn8d-30">
          <mxGeometry width="50" height="50" relative="1" as="geometry">
            <mxPoint x="1230" y="380" as="sourcePoint" />
            <mxPoint x="1280" y="330" as="targetPoint" />
          </mxGeometry>
        </mxCell>
        <mxCell id="nNgazk7PQz3e_FqCZn8d-35" value="" style="endArrow=classic;html=1;rounded=0;entryX=0.5;entryY=1;entryDx=0;entryDy=0;" edge="1" parent="1" source="nNgazk7PQz3e_FqCZn8d-9" target="nNgazk7PQz3e_FqCZn8d-20">
          <mxGeometry width="50" height="50" relative="1" as="geometry">
            <mxPoint x="1100" y="460" as="sourcePoint" />
            <mxPoint x="1150" y="410" as="targetPoint" />
          </mxGeometry>
        </mxCell>
        <mxCell id="nNgazk7PQz3e_FqCZn8d-36" value="" style="endArrow=classic;html=1;rounded=0;entryX=0.5;entryY=1;entryDx=0;entryDy=0;exitX=0.967;exitY=0.27;exitDx=0;exitDy=0;exitPerimeter=0;" edge="1" parent="1" source="nNgazk7PQz3e_FqCZn8d-5" target="nNgazk7PQz3e_FqCZn8d-19">
          <mxGeometry width="50" height="50" relative="1" as="geometry">
            <mxPoint x="410" y="220" as="sourcePoint" />
            <mxPoint x="460" y="170" as="targetPoint" />
          </mxGeometry>
        </mxCell>
        <mxCell id="nNgazk7PQz3e_FqCZn8d-38" value="" style="endArrow=classic;html=1;rounded=0;entryX=0.5;entryY=1;entryDx=0;entryDy=0;exitX=0.5;exitY=0;exitDx=0;exitDy=0;" edge="1" parent="1" source="nNgazk7PQz3e_FqCZn8d-5" target="nNgazk7PQz3e_FqCZn8d-17">
          <mxGeometry width="50" height="50" relative="1" as="geometry">
            <mxPoint x="516" y="280" as="sourcePoint" />
            <mxPoint x="615" y="210" as="targetPoint" />
          </mxGeometry>
        </mxCell>
        <mxCell id="nNgazk7PQz3e_FqCZn8d-39" value="" style="endArrow=classic;html=1;rounded=0;entryX=1;entryY=1;entryDx=0;entryDy=0;" edge="1" parent="1" source="nNgazk7PQz3e_FqCZn8d-5" target="nNgazk7PQz3e_FqCZn8d-18">
          <mxGeometry width="50" height="50" relative="1" as="geometry">
            <mxPoint x="526" y="290" as="sourcePoint" />
            <mxPoint x="625" y="220" as="targetPoint" />
          </mxGeometry>
        </mxCell>
        <mxCell id="nNgazk7PQz3e_FqCZn8d-40" value="" style="endArrow=classic;html=1;rounded=0;exitX=0;exitY=0.5;exitDx=0;exitDy=0;" edge="1" parent="1" source="nNgazk7PQz3e_FqCZn8d-5" target="nNgazk7PQz3e_FqCZn8d-22">
          <mxGeometry width="50" height="50" relative="1" as="geometry">
            <mxPoint x="536" y="300" as="sourcePoint" />
            <mxPoint x="635" y="230" as="targetPoint" />
          </mxGeometry>
        </mxCell>
        <mxCell id="nNgazk7PQz3e_FqCZn8d-41" value="" style="endArrow=classic;html=1;rounded=0;entryX=0.5;entryY=0;entryDx=0;entryDy=0;exitX=0.247;exitY=0.94;exitDx=0;exitDy=0;exitPerimeter=0;" edge="1" parent="1" source="nNgazk7PQz3e_FqCZn8d-5" target="nNgazk7PQz3e_FqCZn8d-23">
          <mxGeometry width="50" height="50" relative="1" as="geometry">
            <mxPoint x="546" y="310" as="sourcePoint" />
            <mxPoint x="645" y="240" as="targetPoint" />
          </mxGeometry>
        </mxCell>
        <mxCell id="nNgazk7PQz3e_FqCZn8d-42" value="" style="endArrow=classic;html=1;rounded=0;entryX=1;entryY=0.75;entryDx=0;entryDy=0;exitX=0;exitY=0;exitDx=0;exitDy=0;" edge="1" parent="1" source="nNgazk7PQz3e_FqCZn8d-10" target="nNgazk7PQz3e_FqCZn8d-21">
          <mxGeometry width="50" height="50" relative="1" as="geometry">
            <mxPoint x="556" y="320" as="sourcePoint" />
            <mxPoint x="655" y="250" as="targetPoint" />
          </mxGeometry>
        </mxCell>
        <mxCell id="nNgazk7PQz3e_FqCZn8d-43" value="" style="endArrow=classic;html=1;rounded=0;entryX=1;entryY=0.5;entryDx=0;entryDy=0;exitX=0;exitY=1;exitDx=0;exitDy=0;" edge="1" parent="1" source="nNgazk7PQz3e_FqCZn8d-10" target="nNgazk7PQz3e_FqCZn8d-24">
          <mxGeometry width="50" height="50" relative="1" as="geometry">
            <mxPoint x="409" y="736" as="sourcePoint" />
            <mxPoint x="320" y="690" as="targetPoint" />
          </mxGeometry>
        </mxCell>
        <mxCell id="nNgazk7PQz3e_FqCZn8d-44" value="" style="endArrow=classic;html=1;rounded=0;entryX=1;entryY=0.25;entryDx=0;entryDy=0;exitX=0;exitY=0.5;exitDx=0;exitDy=0;" edge="1" parent="1" source="nNgazk7PQz3e_FqCZn8d-6" target="nNgazk7PQz3e_FqCZn8d-25">
          <mxGeometry width="50" height="50" relative="1" as="geometry">
            <mxPoint x="419" y="746" as="sourcePoint" />
            <mxPoint x="330" y="700" as="targetPoint" />
          </mxGeometry>
        </mxCell>
        <mxCell id="nNgazk7PQz3e_FqCZn8d-45" value="" style="endArrow=classic;html=1;rounded=0;entryX=0;entryY=0.25;entryDx=0;entryDy=0;exitX=1;exitY=0.5;exitDx=0;exitDy=0;" edge="1" parent="1" source="nNgazk7PQz3e_FqCZn8d-6" target="nNgazk7PQz3e_FqCZn8d-27">
          <mxGeometry width="50" height="50" relative="1" as="geometry">
            <mxPoint x="429" y="756" as="sourcePoint" />
            <mxPoint x="340" y="710" as="targetPoint" />
          </mxGeometry>
        </mxCell>
        <mxCell id="nNgazk7PQz3e_FqCZn8d-46" value="" style="endArrow=classic;html=1;rounded=0;exitX=0.5;exitY=1;exitDx=0;exitDy=0;" edge="1" parent="1" source="nNgazk7PQz3e_FqCZn8d-6" target="nNgazk7PQz3e_FqCZn8d-26">
          <mxGeometry width="50" height="50" relative="1" as="geometry">
            <mxPoint x="439" y="766" as="sourcePoint" />
            <mxPoint x="350" y="720" as="targetPoint" />
          </mxGeometry>
        </mxCell>
        <mxCell id="nNgazk7PQz3e_FqCZn8d-47" value="" style="endArrow=classic;html=1;rounded=0;entryX=0;entryY=0.5;entryDx=0;entryDy=0;exitX=1;exitY=0.636;exitDx=0;exitDy=0;exitPerimeter=0;" edge="1" parent="1" source="nNgazk7PQz3e_FqCZn8d-7" target="nNgazk7PQz3e_FqCZn8d-28">
          <mxGeometry width="50" height="50" relative="1" as="geometry">
            <mxPoint x="872" y="875" as="sourcePoint" />
            <mxPoint x="950" y="873" as="targetPoint" />
          </mxGeometry>
        </mxCell>
        <mxCell id="nNgazk7PQz3e_FqCZn8d-49" value="&lt;font style=&quot;font-size: 10px;&quot;&gt;Voisins spatiaux, VCU&lt;/font&gt;" style="ellipse;whiteSpace=wrap;html=1;fillColor=#d5e8d4;strokeColor=#82b366;" vertex="1" parent="1">
          <mxGeometry x="110" y="90" width="80" height="40" as="geometry" />
        </mxCell>
        <mxCell id="nNgazk7PQz3e_FqCZn8d-50" value="&lt;font style=&quot;font-size: 10px;&quot;&gt;Règlement FS&lt;/font&gt;" style="ellipse;whiteSpace=wrap;html=1;fillColor=#d5e8d4;strokeColor=#82b366;" vertex="1" parent="1">
          <mxGeometry x="280" y="10" width="80" height="40" as="geometry" />
        </mxCell>
        <mxCell id="nNgazk7PQz3e_FqCZn8d-51" value="&lt;font style=&quot;font-size: 10px;&quot;&gt;Moteurs&lt;/font&gt;" style="ellipse;whiteSpace=wrap;html=1;fillColor=#d5e8d4;strokeColor=#82b366;" vertex="1" parent="1">
          <mxGeometry x="120" y="370" width="80" height="40" as="geometry" />
        </mxCell>
        <mxCell id="nNgazk7PQz3e_FqCZn8d-52" value="&lt;span style=&quot;font-size: 10px;&quot;&gt;Onduleurs, moteurs, VCU&lt;/span&gt;" style="ellipse;whiteSpace=wrap;html=1;fillColor=#d5e8d4;strokeColor=#82b366;" vertex="1" parent="1">
          <mxGeometry x="340" y="550" width="80" height="40" as="geometry" />
        </mxCell>
        <mxCell id="nNgazk7PQz3e_FqCZn8d-53" value="&lt;font style=&quot;font-size: 10px;&quot;&gt;Opérateur autre&lt;/font&gt;" style="ellipse;whiteSpace=wrap;html=1;fillColor=#d5e8d4;strokeColor=#82b366;" vertex="1" parent="1">
          <mxGeometry x="565" y="40" width="80" height="40" as="geometry" />
        </mxCell>
        <mxCell id="nNgazk7PQz3e_FqCZn8d-54" value="&lt;font style=&quot;font-size: 10px;&quot;&gt;Opérateur autre&lt;/font&gt;" style="ellipse;whiteSpace=wrap;html=1;fillColor=#d5e8d4;strokeColor=#82b366;" vertex="1" parent="1">
          <mxGeometry x="880" y="20" width="80" height="40" as="geometry" />
        </mxCell>
        <mxCell id="nNgazk7PQz3e_FqCZn8d-55" value="&lt;font style=&quot;font-size: 10px;&quot;&gt;Ordinateur de commande&lt;/font&gt;" style="ellipse;whiteSpace=wrap;html=1;fillColor=#d5e8d4;strokeColor=#82b366;" vertex="1" parent="1">
          <mxGeometry x="1290" y="30" width="80" height="40" as="geometry" />
        </mxCell>
        <mxCell id="nNgazk7PQz3e_FqCZn8d-56" value="&lt;font style=&quot;font-size: 10px;&quot;&gt;Maquette&lt;/font&gt;" style="ellipse;whiteSpace=wrap;html=1;fillColor=#d5e8d4;strokeColor=#82b366;" vertex="1" parent="1">
          <mxGeometry x="1300" y="110" width="80" height="40" as="geometry" />
        </mxCell>
        <mxCell id="nNgazk7PQz3e_FqCZn8d-57" value="&lt;font style=&quot;font-size: 10px;&quot;&gt;Ordinateur de commande&lt;/font&gt;" style="ellipse;whiteSpace=wrap;html=1;fillColor=#d5e8d4;strokeColor=#82b366;" vertex="1" parent="1">
          <mxGeometry x="1470" y="340" width="80" height="40" as="geometry" />
        </mxCell>
        <mxCell id="nNgazk7PQz3e_FqCZn8d-58" value="&lt;font style=&quot;font-size: 10px;&quot;&gt;Véhicule&lt;/font&gt;" style="ellipse;whiteSpace=wrap;html=1;fillColor=#d5e8d4;strokeColor=#82b366;" vertex="1" parent="1">
          <mxGeometry x="1440" y="795" width="80" height="40" as="geometry" />
        </mxCell>
        <mxCell id="nNgazk7PQz3e_FqCZn8d-59" value="&lt;font style=&quot;font-size: 10px;&quot;&gt;VCU, onduleur&lt;/font&gt;" style="ellipse;whiteSpace=wrap;html=1;fillColor=#d5e8d4;strokeColor=#82b366;" vertex="1" parent="1">
          <mxGeometry x="1040" y="950" width="80" height="40" as="geometry" />
        </mxCell>
        <mxCell id="nNgazk7PQz3e_FqCZn8d-60" value="&lt;span style=&quot;font-size: 10px;&quot;&gt;Voisins spatiaux&lt;/span&gt;" style="ellipse;whiteSpace=wrap;html=1;fillColor=#d5e8d4;strokeColor=#82b366;" vertex="1" parent="1">
          <mxGeometry x="757.5" y="1090" width="80" height="40" as="geometry" />
        </mxCell>
        <mxCell id="nNgazk7PQz3e_FqCZn8d-61" value="&lt;span style=&quot;font-size: 10px;&quot;&gt;VCU, onduleurs, capteurs, route,...&lt;/span&gt;" style="ellipse;whiteSpace=wrap;html=1;fillColor=#d5e8d4;strokeColor=#82b366;" vertex="1" parent="1">
          <mxGeometry x="535" y="990" width="80" height="40" as="geometry" />
        </mxCell>
        <mxCell id="nNgazk7PQz3e_FqCZn8d-62" value="&lt;span style=&quot;font-size: 10px;&quot;&gt;Différentes voitures&lt;/span&gt;" style="ellipse;whiteSpace=wrap;html=1;fillColor=#d5e8d4;strokeColor=#82b366;" vertex="1" parent="1">
          <mxGeometry x="245" y="970" width="80" height="40" as="geometry" />
        </mxCell>
        <mxCell id="nNgazk7PQz3e_FqCZn8d-64" value="&lt;font style=&quot;font-size: 10px;&quot;&gt;Opérateur autre&lt;/font&gt;" style="ellipse;whiteSpace=wrap;html=1;fillColor=#d5e8d4;strokeColor=#82b366;" vertex="1" parent="1">
          <mxGeometry x="130" y="640" width="80" height="40" as="geometry" />
        </mxCell>
        <mxCell id="nNgazk7PQz3e_FqCZn8d-65" value="" style="endArrow=none;dashed=1;html=1;dashPattern=1 3;strokeWidth=2;rounded=0;fillColor=#d5e8d4;strokeColor=#82b366;entryX=0;entryY=0.5;entryDx=0;entryDy=0;exitX=1;exitY=0.5;exitDx=0;exitDy=0;" edge="1" parent="1" source="nNgazk7PQz3e_FqCZn8d-20" target="nNgazk7PQz3e_FqCZn8d-54">
          <mxGeometry width="50" height="50" relative="1" as="geometry">
            <mxPoint x="850" y="370" as="sourcePoint" />
            <mxPoint x="900" y="320" as="targetPoint" />
          </mxGeometry>
        </mxCell>
        <mxCell id="nNgazk7PQz3e_FqCZn8d-66" value="" style="endArrow=none;dashed=1;html=1;dashPattern=1 3;strokeWidth=2;rounded=0;fillColor=#d5e8d4;strokeColor=#82b366;exitX=1;exitY=0;exitDx=0;exitDy=0;" edge="1" parent="1" source="nNgazk7PQz3e_FqCZn8d-29" target="nNgazk7PQz3e_FqCZn8d-55">
          <mxGeometry width="50" height="50" relative="1" as="geometry">
            <mxPoint x="848" y="60" as="sourcePoint" />
            <mxPoint x="890" y="50" as="targetPoint" />
          </mxGeometry>
        </mxCell>
        <mxCell id="nNgazk7PQz3e_FqCZn8d-67" value="" style="endArrow=none;dashed=1;html=1;dashPattern=1 3;strokeWidth=2;rounded=0;fillColor=#d5e8d4;strokeColor=#82b366;entryX=0.994;entryY=0.582;entryDx=0;entryDy=0;exitX=0;exitY=0.5;exitDx=0;exitDy=0;entryPerimeter=0;" edge="1" parent="1" source="nNgazk7PQz3e_FqCZn8d-56" target="nNgazk7PQz3e_FqCZn8d-29">
          <mxGeometry width="50" height="50" relative="1" as="geometry">
            <mxPoint x="858" y="70" as="sourcePoint" />
            <mxPoint x="900" y="60" as="targetPoint" />
          </mxGeometry>
        </mxCell>
        <mxCell id="nNgazk7PQz3e_FqCZn8d-68" value="" style="endArrow=none;dashed=1;html=1;dashPattern=1 3;strokeWidth=2;rounded=0;fillColor=#d5e8d4;strokeColor=#82b366;entryX=0;entryY=0.5;entryDx=0;entryDy=0;exitX=1.07;exitY=0.436;exitDx=0;exitDy=0;exitPerimeter=0;" edge="1" parent="1" source="nNgazk7PQz3e_FqCZn8d-30" target="nNgazk7PQz3e_FqCZn8d-57">
          <mxGeometry width="50" height="50" relative="1" as="geometry">
            <mxPoint x="868" y="80" as="sourcePoint" />
            <mxPoint x="910" y="70" as="targetPoint" />
          </mxGeometry>
        </mxCell>
        <mxCell id="nNgazk7PQz3e_FqCZn8d-69" value="" style="endArrow=none;dashed=1;html=1;dashPattern=1 3;strokeWidth=2;rounded=0;fillColor=#d5e8d4;strokeColor=#82b366;entryX=0.5;entryY=1;entryDx=0;entryDy=0;exitX=0.5;exitY=0;exitDx=0;exitDy=0;" edge="1" parent="1" source="nNgazk7PQz3e_FqCZn8d-19" target="nNgazk7PQz3e_FqCZn8d-53">
          <mxGeometry width="50" height="50" relative="1" as="geometry">
            <mxPoint x="878" y="90" as="sourcePoint" />
            <mxPoint x="920" y="80" as="targetPoint" />
          </mxGeometry>
        </mxCell>
        <mxCell id="nNgazk7PQz3e_FqCZn8d-70" value="" style="endArrow=none;dashed=1;html=1;dashPattern=1 3;strokeWidth=2;rounded=0;fillColor=#d5e8d4;strokeColor=#82b366;exitX=0.98;exitY=0.862;exitDx=0;exitDy=0;exitPerimeter=0;" edge="1" parent="1" source="nNgazk7PQz3e_FqCZn8d-50">
          <mxGeometry width="50" height="50" relative="1" as="geometry">
            <mxPoint x="888" y="100" as="sourcePoint" />
            <mxPoint x="390" y="50" as="targetPoint" />
          </mxGeometry>
        </mxCell>
        <mxCell id="nNgazk7PQz3e_FqCZn8d-71" value="" style="endArrow=none;dashed=1;html=1;dashPattern=1 3;strokeWidth=2;rounded=0;fillColor=#d5e8d4;strokeColor=#82b366;exitX=1;exitY=0.5;exitDx=0;exitDy=0;entryX=-0.06;entryY=0.109;entryDx=0;entryDy=0;entryPerimeter=0;" edge="1" parent="1" source="nNgazk7PQz3e_FqCZn8d-49" target="nNgazk7PQz3e_FqCZn8d-18">
          <mxGeometry width="50" height="50" relative="1" as="geometry">
            <mxPoint x="898" y="110" as="sourcePoint" />
            <mxPoint x="250" y="110" as="targetPoint" />
          </mxGeometry>
        </mxCell>
        <mxCell id="nNgazk7PQz3e_FqCZn8d-72" value="" style="endArrow=none;dashed=1;html=1;dashPattern=1 3;strokeWidth=2;rounded=0;fillColor=#d5e8d4;strokeColor=#82b366;entryX=0.368;entryY=1.01;entryDx=0;entryDy=0;exitX=1;exitY=0;exitDx=0;exitDy=0;entryPerimeter=0;" edge="1" parent="1" source="nNgazk7PQz3e_FqCZn8d-51" target="nNgazk7PQz3e_FqCZn8d-22">
          <mxGeometry width="50" height="50" relative="1" as="geometry">
            <mxPoint x="908" y="120" as="sourcePoint" />
            <mxPoint x="950" y="110" as="targetPoint" />
          </mxGeometry>
        </mxCell>
        <mxCell id="nNgazk7PQz3e_FqCZn8d-73" value="" style="endArrow=none;dashed=1;html=1;dashPattern=1 3;strokeWidth=2;rounded=0;fillColor=#d5e8d4;strokeColor=#82b366;entryX=0.5;entryY=0;entryDx=0;entryDy=0;exitX=0.5;exitY=1;exitDx=0;exitDy=0;" edge="1" parent="1" source="nNgazk7PQz3e_FqCZn8d-23" target="nNgazk7PQz3e_FqCZn8d-52">
          <mxGeometry width="50" height="50" relative="1" as="geometry">
            <mxPoint x="918" y="130" as="sourcePoint" />
            <mxPoint x="960" y="120" as="targetPoint" />
          </mxGeometry>
        </mxCell>
        <mxCell id="nNgazk7PQz3e_FqCZn8d-74" value="" style="endArrow=none;dashed=1;html=1;dashPattern=1 3;strokeWidth=2;rounded=0;fillColor=#d5e8d4;strokeColor=#82b366;entryX=1;entryY=0.5;entryDx=0;entryDy=0;exitX=0;exitY=0.5;exitDx=0;exitDy=0;" edge="1" parent="1" source="nNgazk7PQz3e_FqCZn8d-21" target="nNgazk7PQz3e_FqCZn8d-64">
          <mxGeometry width="50" height="50" relative="1" as="geometry">
            <mxPoint x="928" y="140" as="sourcePoint" />
            <mxPoint x="970" y="130" as="targetPoint" />
          </mxGeometry>
        </mxCell>
        <mxCell id="nNgazk7PQz3e_FqCZn8d-75" value="" style="endArrow=none;dashed=1;html=1;dashPattern=1 3;strokeWidth=2;rounded=0;fillColor=#d5e8d4;strokeColor=#82b366;entryX=0.5;entryY=0;entryDx=0;entryDy=0;exitX=0.5;exitY=1;exitDx=0;exitDy=0;" edge="1" parent="1" source="nNgazk7PQz3e_FqCZn8d-24" target="nNgazk7PQz3e_FqCZn8d-62">
          <mxGeometry width="50" height="50" relative="1" as="geometry">
            <mxPoint x="240" y="670" as="sourcePoint" />
            <mxPoint x="220" y="670" as="targetPoint" />
          </mxGeometry>
        </mxCell>
        <mxCell id="nNgazk7PQz3e_FqCZn8d-76" value="" style="endArrow=none;dashed=1;html=1;dashPattern=1 3;strokeWidth=2;rounded=0;fillColor=#d5e8d4;strokeColor=#82b366;entryX=0.5;entryY=0;entryDx=0;entryDy=0;exitX=0.5;exitY=1;exitDx=0;exitDy=0;" edge="1" parent="1" source="nNgazk7PQz3e_FqCZn8d-25" target="nNgazk7PQz3e_FqCZn8d-61">
          <mxGeometry width="50" height="50" relative="1" as="geometry">
            <mxPoint x="250" y="680" as="sourcePoint" />
            <mxPoint x="230" y="680" as="targetPoint" />
          </mxGeometry>
        </mxCell>
        <mxCell id="nNgazk7PQz3e_FqCZn8d-77" value="" style="endArrow=none;dashed=1;html=1;dashPattern=1 3;strokeWidth=2;rounded=0;fillColor=#d5e8d4;strokeColor=#82b366;entryX=0.5;entryY=0;entryDx=0;entryDy=0;exitX=1;exitY=1;exitDx=0;exitDy=0;" edge="1" parent="1" source="nNgazk7PQz3e_FqCZn8d-27" target="nNgazk7PQz3e_FqCZn8d-59">
          <mxGeometry width="50" height="50" relative="1" as="geometry">
            <mxPoint x="585" y="960" as="sourcePoint" />
            <mxPoint x="585" y="1000" as="targetPoint" />
          </mxGeometry>
        </mxCell>
        <mxCell id="nNgazk7PQz3e_FqCZn8d-78" value="" style="endArrow=none;dashed=1;html=1;dashPattern=1 3;strokeWidth=2;rounded=0;fillColor=#d5e8d4;strokeColor=#82b366;entryX=0.5;entryY=0;entryDx=0;entryDy=0;exitX=0.5;exitY=1;exitDx=0;exitDy=0;" edge="1" parent="1" source="nNgazk7PQz3e_FqCZn8d-26" target="nNgazk7PQz3e_FqCZn8d-60">
          <mxGeometry width="50" height="50" relative="1" as="geometry">
            <mxPoint x="595" y="970" as="sourcePoint" />
            <mxPoint x="595" y="1010" as="targetPoint" />
          </mxGeometry>
        </mxCell>
        <mxCell id="nNgazk7PQz3e_FqCZn8d-79" value="" style="endArrow=none;dashed=1;html=1;dashPattern=1 3;strokeWidth=2;rounded=0;fillColor=#d5e8d4;strokeColor=#82b366;entryX=0;entryY=0.5;entryDx=0;entryDy=0;exitX=1;exitY=0.5;exitDx=0;exitDy=0;" edge="1" parent="1" source="nNgazk7PQz3e_FqCZn8d-28" target="nNgazk7PQz3e_FqCZn8d-58">
          <mxGeometry width="50" height="50" relative="1" as="geometry">
            <mxPoint x="605" y="980" as="sourcePoint" />
            <mxPoint x="605" y="1020" as="targetPoint" />
          </mxGeometry>
        </mxCell>
      </root>
    </mxGraphModel>
  </diagram>
</mxfile>
